<svg xmlns="http://www.w3.org/2000/svg" width="35" height="35" viewBox="0 0 35 35"><g><g><path fill="#fff" d="M11.736 22.826a7.564 7.564 0 0 1-1.952-5.08c0-.08.005-.16.007-.24.134.003 3.906.087 7.837-1.085.217.426.428.862.622 1.293l-.303.09c-4.117 1.328-6.206 5.018-6.211 5.022zm-1.79-6.649a7.617 7.617 0 0 1 4.214-5.308 45.129 45.129 0 0 1 2.836 4.38c-3.664.971-6.848.934-7.05.928zm8.821 2.797c1.074 2.781 1.52 5.111 1.631 5.775a7.605 7.605 0 0 1-7.666-1.018c.055-.118 1.545-3.2 5.984-4.74.02-.005.034-.011.051-.017zm-.295-4.182c-1.304-2.388-2.738-4.287-2.851-4.437a7.666 7.666 0 0 1 1.797-.215c1.933 0 3.7.715 5.042 1.897-.019.03-1.105 1.68-3.988 2.755zm6.483 4.162a7.59 7.59 0 0 1-3.272 5.1c-.076-.459-.483-2.69-1.483-5.432 2.464-.394 4.598.282 4.755.332zm-1.641-6.039a7.548 7.548 0 0 1 1.736 4.754c-.11-.023-2.693-.576-5.316-.248l-.166-.392c-.16-.373-.327-.743-.508-1.104 3.016-1.225 4.24-2.99 4.254-3.01zM17.419.747c-9.387 0-17 7.612-17 17 0 9.389 7.613 17 17 17 9.39 0 17-7.611 17-17 0-9.388-7.61-17-17-17z"/></g></g></svg>