<svg xmlns="http://www.w3.org/2000/svg" width="34" height="35" viewBox="0 0 34 35"><g><g><path fill="#fff" d="M16.874 12.873c.244 1.857-.573 3.053-1.992 3.012-1.422-.045-2.77-1.342-3.015-3.2-.248-1.859.706-3.28 2.127-3.238 1.42.043 2.635 1.566 2.88 3.426zm-.912 7.035c1.15.795 2.075 1.29 2.309 2.2.043.183.068.372.068.566 0 1.601-1.037 2.855-4.013 2.855-2.117 0-3.645-1.334-3.645-2.937 0-1.57 1.792-2.928 3.91-2.905.492.006.954.086 1.371.221zM34 17.5c0 9.39-7.611 17-17 17s-17-7.61-17-17C0 8.11 7.611.5 17 .5s17 7.611 17 17zM17.496 9.824h1.383l1.179-1.23h-5.27c-2.675 0-4.904 1.962-4.904 4.124 0 2.21 1.466 3.97 3.98 3.97.174 0 .345-.01.511-.022-.164.312-.28.66-.28 1.023 0 .613.339.963.758 1.371-.317 0-.623.008-.957.008-3.061 0-5.205 2.098-5.205 4.113 0 1.985 2.584 3.227 5.646 3.227 3.491 0 5.636-1.975 5.636-3.959 0-1.592-.344-2.39-2.045-3.66-.489-.367-1.551-1.117-1.551-1.62 0-.587.167-.878 1.058-1.57.91-.71 1.556-1.646 1.556-2.806 0-1.264-.518-2.412-1.495-2.969zm9.062 1.434h-2.431V8.834H22.91v2.424h-2.429v1.209h2.43v2.424h1.216v-2.424h2.431z"/></g></g></svg>