<svg xmlns="http://www.w3.org/2000/svg" width="46" height="47" viewBox="0 0 46 47"><g><g><path fill="#fff" d="M28.029 20.69c.124.356.186.871.186 1.547v8.295c0 .746-.062 1.314-.186 1.705-.124.393-.4.588-.827.588-.444 0-.743-.182-.893-.547-.151-.363-.227-.875-.227-1.533v-3.3c.016-.29.042-.563.042-.874 0-.23-.029-.428-.042-.643v-3.744c0-1.351.364-2.027 1.094-2.027.443 0 .729.178.853.533zm-6.704-3.799h.01v1.606l-.784-.752c-.853-.801-1.281-1.574-1.281-2.32 0-.338.09-.606.268-.801.177-.195.443-.293.8-.293.301 0 .537.088.705.265.17.178.254.419.254.721zm24.727 6.61c0 12.732-10.32 23.05-23.053 23.05-12.73 0-23.051-10.318-23.051-23.05C-.052 10.77 10.27.448 22.999.448c12.734 0 23.053 10.322 23.053 23.053zm-13.116-1.264c0-1.795-.298-3.199-.894-4.213-.595-1.013-1.649-1.52-3.16-1.52-1.191 0-2.196.495-2.872 1.33l-.03-.943h.01c0-2.33-.452-4.04-1.359-5.134-.907-1.094-2.392-1.64-4.454-1.64-1.724 0-3.036.51-3.933 1.534-.898 1.022-1.347 2.51-1.347 4.467 0 1.813.764 3.467 2.293 4.959l1.974 1.975c.71.693 1.204 1.205 1.48 1.533.275.328.502.738.68 1.226.005.014.006.033.011.047v3.031c-.162.23-.438.348-.838.348-.729 0-1.093-.568-1.093-1.705v-2.853h-4.507v2.24c0 2.293.462 3.955 1.387 4.986.923 1.031 2.426 1.547 4.506 1.547.196 0 .36-.033.545-.045v6.725h4.747v-4.666c.604.658 1.494.986 2.667.986 1.226 0 2.142-.297 2.747-.895.604-.593.995-1.377 1.173-2.345.177-.969.267-2.219.267-3.748z"/></g></g></svg>