<svg xmlns="http://www.w3.org/2000/svg" width="35" height="35" viewBox="0 0 35 35"><g><g><path fill="#fff" d="M34.441 17.609c0 9.388-7.611 17-17 17s-17-7.611-17-17 7.611-17 17-17 17 7.611 17 17zm-8.06-5.526a7.232 7.232 0 0 1-2.106.574 3.653 3.653 0 0 0 1.611-2.019 7.34 7.34 0 0 1-2.33.885 3.67 3.67 0 0 0-2.676-1.153 3.66 3.66 0 0 0-3.574 4.487 10.424 10.424 0 0 1-7.56-3.819 3.645 3.645 0 0 0 1.135 4.879 3.609 3.609 0 0 1-1.663-.457v.047a3.663 3.663 0 0 0 2.943 3.584 3.646 3.646 0 0 1-1.656.062 3.665 3.665 0 0 0 3.426 2.538 7.375 7.375 0 0 1-4.555 1.564c-.296 0-.587-.015-.875-.05a10.407 10.407 0 0 0 5.624 1.642c6.747 0 10.436-5.57 10.436-10.398a9.39 9.39 0 0 0-.01-.473 7.397 7.397 0 0 0 1.83-1.893z"/></g></g></svg>