<svg xmlns="http://www.w3.org/2000/svg" width="47" height="47" viewBox="0 0 47 47"><g><g><path fill="#fff" d="M28.529 20.69c.124.357.186.872.186 1.548v8.294c0 .746-.062 1.315-.186 1.706-.124.392-.4.587-.827.587-.444 0-.743-.182-.893-.547-.151-.364-.227-.875-.227-1.533v-3.301c.016-.29.042-.563.042-.872 0-.23-.029-.428-.042-.644v-3.744c0-1.35.364-2.027 1.094-2.027.443 0 .729.179.853.534zm-6.704-3.799h.01v1.607l-.784-.754c-.853-.8-1.281-1.573-1.281-2.32 0-.337.09-.604.268-.8.177-.196.443-.293.8-.293.301 0 .537.089.705.267.17.177.254.418.254.72zm24.727 6.61c0 12.732-10.32 23.05-23.053 23.05-12.73 0-23.051-10.318-23.051-23.05C.448 10.77 10.77.448 23.499.448c12.734 0 23.053 10.322 23.053 23.053zm-13.116-1.263c0-1.796-.298-3.2-.894-4.214-.595-1.013-1.649-1.52-3.16-1.52-1.191 0-2.196.495-2.872 1.33l-.03-.943h.01c0-2.33-.452-4.04-1.359-5.134-.907-1.093-2.392-1.64-4.454-1.64-1.724 0-3.036.511-3.933 1.534-.898 1.022-1.347 2.51-1.347 4.466 0 1.814.764 3.467 2.293 4.961l1.974 1.973c.71.693 1.204 1.205 1.48 1.534.275.329.502.737.68 1.226.005.014.006.033.011.047v3.032c-.162.23-.438.348-.838.348-.729 0-1.093-.568-1.093-1.706v-2.854h-4.507v2.24c0 2.294.462 3.956 1.387 4.987.923 1.031 2.426 1.547 4.506 1.547.196 0 .36-.033.545-.045v6.725h4.747v-4.667c.604.658 1.494.987 2.667.987 1.226 0 2.142-.298 2.747-.894.604-.595.995-1.377 1.173-2.346.177-.969.267-2.218.267-3.747z"/></g></g></svg>