<svg xmlns="http://www.w3.org/2000/svg" width="158" height="83" viewBox="0 0 158 83"><g><g><path fill="#ffe500" d="M158.165 82.382H.612l21.155-33.741 17.228-18.776L49.388.765l20.554 32.056 5.127-1.616 9.193 19.906 21.71-22.216 11.87 17.922 4.11.507 2.957 8.224 7.436.992zM60.428 33.005l-9.887 5.497V12.59L43.06 34.323 26.848 50.789 9.064 78.272l16.906-.07 10.3-23.9 3.096 8.543 15.566-18.66V57.58zm47.068 12.519l-6.468 2.124 5.452-12.84-19.586 18.615-14.457 24.528L91.7 61.806l-7.438 18.592 16.95-23.05 2.496 3.305z"/></g></g></svg>